<svg id="Group_7365" data-name="Group 7365" xmlns="http://www.w3.org/2000/svg" xmlns:xlink="http://www.w3.org/1999/xlink" width="147" height="110.36" viewBox="0 0 147 110.36">
  <defs>
    <clipPath id="clip-path">
      <rect id="Rectangle_27942" data-name="Rectangle 27942" width="147" height="110.36" fill="none"/>
    </clipPath>
  </defs>
  <g id="Group_7364" data-name="Group 7364" clip-path="url(#clip-path)">
    <path id="Path_5459" data-name="Path 5459" d="M0,201.224c0-8.234,6.226-13.857,14.058-13.857a12.362,12.362,0,0,1,11.407,6.548l-4.9,2.41a7.337,7.337,0,0,0-6.507-3.9c-4.659,0-8.193,3.735-8.193,8.8s3.534,8.8,8.193,8.8a7.263,7.263,0,0,0,6.507-3.9l4.9,2.37a12.435,12.435,0,0,1-11.407,6.587C6.226,215.082,0,209.459,0,201.224" transform="translate(0 -112.113)" fill="#282828"/>
    <path id="Path_5460" data-name="Path 5460" d="M84.735,215.258V203.449c0-2.691-1.406-3.534-3.615-3.534A5.652,5.652,0,0,0,76.7,202.2v13.054H71.6V188.467h5.1v9.921a8.977,8.977,0,0,1,6.828-3.013c4.258,0,6.306,2.33,6.306,6.1v13.777Z" transform="translate(-42.843 -112.771)" fill="#282828"/>
    <path id="Path_5461" data-name="Path 5461" d="M142.693,226.268v-2.45a9.081,9.081,0,0,1-6.829,2.932c-4.257,0-6.266-2.329-6.266-6.105V206.868h5.1v11.769c0,2.691,1.406,3.575,3.575,3.575A5.711,5.711,0,0,0,142.693,220V206.868h5.1v19.4Z" transform="translate(-77.546 -123.781)" fill="#282828"/>
    <path id="Path_5462" data-name="Path 5462" d="M211.558,225.55V213.3c0-1.807-.8-3.093-2.892-3.093a5.15,5.15,0,0,0-4.016,2.249V225.55h-5.141V213.3c0-1.807-.8-3.093-2.892-3.093A5.206,5.206,0,0,0,192.6,212.5V225.55h-5.1v-19.4h5.1v2.531a8.486,8.486,0,0,1,6.346-3.013c2.851,0,4.659,1.325,5.382,3.534A8.234,8.234,0,0,1,211,205.668c3.575,0,5.7,1.888,5.7,5.864V225.55Z" transform="translate(-112.191 -123.063)" fill="#282828"/>
    <path id="Path_5463" data-name="Path 5463" d="M270.705,219.445a11.1,11.1,0,0,0,6.707,2.651c2.209,0,3.254-.763,3.254-1.968,0-1.365-1.687-1.848-3.9-2.289-3.334-.643-7.632-1.446-7.632-6.066,0-3.253,2.852-6.1,7.953-6.1a12.187,12.187,0,0,1,7.792,2.651l-2.008,3.494a8.184,8.184,0,0,0-5.744-2.25c-1.848,0-3.053.683-3.053,1.807,0,1.205,1.526,1.648,3.7,2.089,3.334.642,7.792,1.526,7.792,6.346,0,3.575-3.013,6.226-8.395,6.226a13.057,13.057,0,0,1-8.676-3.013Z" transform="translate(-160.657 -123.063)" fill="#282828"/>
    <path id="Path_5464" data-name="Path 5464" d="M316.348,229.281a4.412,4.412,0,0,0,1.607.322,2.574,2.574,0,0,0,2.691-1.406l.723-1.647L313.5,206.868h5.463l5.061,13.5,5.061-13.5h5.5l-9.118,22.573c-1.446,3.655-4.016,4.619-7.35,4.7a13.945,13.945,0,0,1-2.53-.282Z" transform="translate(-187.583 -123.781)" fill="#282828"/>
    <path id="Path_5465" data-name="Path 5465" d="M125.058,101.413a6.873,6.873,0,1,1-6.54-7.191,6.873,6.873,0,0,1,6.54,7.191" transform="translate(-66.61 -56.374)" fill="#282828"/>
    <path id="Path_5466" data-name="Path 5466" d="M193.146,7.2A6.873,6.873,0,1,1,186.606.008,6.873,6.873,0,0,1,193.146,7.2" transform="translate(-107.351 0)" fill="#282828"/>
    <path id="Path_5467" data-name="Path 5467" d="M88.127,7.179A15.37,15.37,0,1,0,90.6,37.82c13.415-1.082,23.695-16.984,23.695-16.984S101.542,6.1,88.127,7.179M89.05,31.9a9.358,9.358,0,1,1,9.043-9.663A9.357,9.357,0,0,1,89.05,31.9" transform="translate(-44.274 -4.262)" fill="#282828"/>
    <path id="Path_5468" data-name="Path 5468" d="M182.551,34.224c-18.8,0-34.9,20.986-34.9,20.986s16.1,21.958,34.9,21.958a21.472,21.472,0,0,0,0-42.943m13.931,22.091a13.073,13.073,0,1,1-12.439-13.677,13.073,13.073,0,0,1,12.439,13.677" transform="translate(-88.347 -20.478)" fill="#282828"/>
  </g>
</svg>
