<svg xmlns="http://www.w3.org/2000/svg" width="32.89" height="38.997" viewBox="0 0 32.89 38.997">
  <path id="Path_5334" data-name="Path 5334" d="M27.555,38.427c-2.115,2.053-4.449,1.733-6.674.765a8.455,8.455,0,0,0-7.025,0c-3.11,1.343-4.761.952-6.635-.765-10.576-10.889-9.015-27.475,3.005-28.1,2.915.156,4.956,1.612,6.674,1.733,2.552-.519,5-2.006,7.727-1.811A9.412,9.412,0,0,1,32,14.14,8.579,8.579,0,0,0,33.054,29.6a21.937,21.937,0,0,1-5.5,8.859ZM16.666,10.21A8.885,8.885,0,0,1,24.784,1C25.4,6.581,19.71,10.757,16.666,10.21Z" transform="translate(-0.164 -1)"/>
</svg>
