<svg xmlns="http://www.w3.org/2000/svg" width="38.169" height="38.997" viewBox="0 0 38.169 38.997">
  <g id="Group_7242" data-name="Group 7242" transform="translate(-0.255)">
    <path id="Path_5328" data-name="Path 5328" d="M30.925,13.689A22.591,22.591,0,0,0,30.616,10H12.255v7.328H22.768a9.052,9.052,0,0,1-3.9,5.817V28.02H25.14C28.813,24.624,30.925,19.619,30.925,13.689Z" transform="translate(7.499 6.249)" fill="#4285f4"/>
    <path id="Path_5329" data-name="Path 5329" d="M18.948,30.068a18.574,18.574,0,0,0,12.885-4.728l-6.272-4.875a11.763,11.763,0,0,1-6.613,1.885A11.645,11.645,0,0,1,8.012,14.29H1.545v5.021A19.47,19.47,0,0,0,18.948,30.068Z" transform="translate(0.806 8.93)" fill="#34a853"/>
    <path id="Path_5330" data-name="Path 5330" d="M8.818,19.083A11.315,11.315,0,0,1,8.2,15.362a11.755,11.755,0,0,1,.617-3.721V6.62H2.351a19.277,19.277,0,0,0,0,17.484Z" transform="translate(0 4.137)" fill="#fbbc05"/>
    <path id="Path_5331" data-name="Path 5331" d="M18.948,7.718a10.579,10.579,0,0,1,7.475,2.925l5.557-5.557A18.642,18.642,0,0,0,18.948,0a19.47,19.47,0,0,0-17.4,10.757l6.467,5.021A11.645,11.645,0,0,1,18.948,7.718Z" transform="translate(0.806 0)" fill="#ea4335"/>
  </g>
</svg>
